HIERARCHY
ROOT hip
{
	OFFSET 0.000000 0.000000 0.000000 
	CHANNELS 6 Xposition Yposition Zposition Xrotation Zrotation Yrotation
	JOINT abdomen
	{
		OFFSET 0.000000 3.402643 0.000000 
		CHANNELS 3 Xrotation Zrotation Yrotation
		JOINT chest
		{
			OFFSET 0.000000 8.438565 -0.680529 
			CHANNELS 3 Xrotation Zrotation Yrotation
			JOINT neck
			{
				OFFSET 0.000000 10.207942 -0.272212 
				CHANNELS 3 Xrotation Zrotation Yrotation
				JOINT head
				{
					OFFSET 0.000000 3.130431 0.000000 
					CHANNELS 3 Xrotation Zrotation Yrotation
					End Site
					{
						OFFSET 0.000000 3.130435 0.000000 
					}
				}
			}
			JOINT lCollar
			{
				OFFSET 3.470700 6.669187 -0.816635 
				CHANNELS 3 Yrotation Zrotation Xrotation
				JOINT lShldr
				{
					OFFSET 3.198488 0.000000 0.000000 
					CHANNELS 3 Zrotation Yrotation Xrotation
					JOINT lForeArm
					{
						OFFSET 10.139888 0.000000 0.000000 
						CHANNELS 3 Yrotation Zrotation Xrotation
						JOINT lHand
						{
							OFFSET 8.370511 0.000000 0.000000 
							CHANNELS 3 Zrotation Yrotation Xrotation
							End Site
							{
								OFFSET 4.083176 0.000000 0.000000 
							}
						}
					}
				}
			}
			JOINT rCollar
			{
				OFFSET -3.470700 6.669187 -0.816635 
				CHANNELS 3 Yrotation Zrotation Xrotation
				JOINT rShldr
				{
					OFFSET -3.198488 0.000000 0.000000 
					CHANNELS 3 Zrotation Yrotation Xrotation
					JOINT rForeArm
					{
						OFFSET -10.139888 0.000000 0.000000 
						CHANNELS 3 Yrotation Zrotation Xrotation
						JOINT rHand
						{
							OFFSET -8.370511 0.000000 0.000000 
							CHANNELS 3 Zrotation Yrotation Xrotation
							End Site
							{
								OFFSET -4.083176 0.000000 0.000000 
							}
						}
					}
				}
			}
		}
	}
	JOINT lThigh
	{
		OFFSET 5.308129 -1.633274 1.361059 
		CHANNELS 3 Xrotation Zrotation Yrotation
		JOINT lShin
		{
			OFFSET -2.041588 -20.007561 0.000000 
			CHANNELS 3 Xrotation Zrotation Yrotation
			JOINT lFoot
			{
				OFFSET 0.000000 -19.190928 -1.224953 
				CHANNELS 3 Xrotation Yrotation Zrotation
				End Site
				{
					OFFSET 0.000000 -2.449906 4.627600 
				}
			}
		}
	}
	JOINT rThigh
	{
		OFFSET -5.308129 -1.633274 1.361059 
		CHANNELS 3 Xrotation Zrotation Yrotation
		JOINT rShin
		{
			OFFSET 2.041588 -20.007561 0.000000 
			CHANNELS 3 Xrotation Zrotation Yrotation
			JOINT rFoot
			{
				OFFSET 0.000000 -19.190928 -1.224953 
				CHANNELS 3 Xrotation Yrotation Zrotation
				End Site
				{
					OFFSET 0.000000 -2.449906 4.627600 
				}
			}
		}
	}
}
MOTION
Frames: 11
Frame Time: 0.016667
-20.211781 42.117390 20.598717 0.146948 4.550770 6.389350 -24.687901 1.890740 2.046790 19.071699 1.571740 1.326460 -16.921301 0.662164 -3.391320 2.779560 5.567540 -0.851484 2.000000 -2.000000 0.000000 -12.690700 7.418690 138.220001 33.955399 -0.328251 0.076421 0.075476 -0.079487 -166.619003 -2.000000 2.000000 0.000000 11.902800 -10.402700 114.227997 -26.045200 0.337681 0.060033 -0.054399 0.000519 -137.106995 -5.937150 3.149705 4.740404 33.490337 3.298355 2.279235 -16.833370 -0.345265 0.880509 -5.846264 -1.716238 6.610878 32.588802 -3.264230 -2.230767 -27.524340 -26.929216 -13.902586 
-20.062145 42.090996 20.379995 0.097917 4.179680 5.916030 -24.540701 2.540580 1.892780 19.081200 1.932950 1.376030 -17.025499 -0.196023 -2.529130 2.799160 5.147710 -0.576997 2.000000 -2.000000 0.000000 -14.369500 8.149950 137.563995 33.027699 -0.329473 0.074575 0.074220 -0.077244 -165.701004 -2.000000 2.000000 0.000000 10.058700 -9.651540 115.046997 -26.728800 0.336956 0.061494 -0.054452 0.004156 -138.406006 -5.555000 2.561749 5.008238 32.288021 3.313653 2.198616 -17.905521 4.448962 2.363008 -6.332164 -1.773934 6.131096 32.768925 -3.237480 -2.250436 -26.886526 -26.271551 -13.289256 
-19.896336 42.083012 20.136784 0.195804 4.062480 5.502810 -24.425501 3.126350 1.705300 19.002600 2.362410 1.391060 -17.449900 -1.136060 -1.582210 2.681470 4.688860 -0.283859 2.000000 -2.000000 0.000000 -15.903000 9.175340 137.561996 32.158600 -0.330590 0.072828 0.074089 -0.077004 -165.602997 -2.000000 2.000000 0.000000 8.234440 -8.881000 115.966003 -27.676100 0.335923 0.063505 -0.054681 0.009511 -140.320007 -5.276449 1.862612 5.559063 30.931612 3.299567 2.130848 -18.493803 6.790327 3.169154 -6.990925 -2.132079 5.622708 33.028172 -3.202345 -2.267251 -26.204582 -25.555704 -12.655538 
-19.741533 42.054443 19.877281 0.332921 4.189380 5.317940 -24.321501 3.588320 1.437480 18.874901 2.850340 1.342230 -17.802000 -2.069270 -0.599447 2.603010 4.230020 0.014031 2.000000 -2.000000 0.000000 -17.260599 10.229900 137.483002 31.191700 -0.331801 0.070865 0.074418 -0.077603 -165.847000 -2.000000 2.000000 0.000000 6.595920 -8.188730 116.991997 -28.848000 0.334599 0.065968 -0.055183 0.015835 -142.585999 -5.116270 1.059742 5.680660 29.732073 3.286901 2.071736 -18.920025 8.102345 3.623694 -7.672112 -2.677823 5.275681 33.434811 -3.171497 -2.302354 -25.901587 -25.106117 -12.320928 
-19.597179 42.012623 19.607220 0.499602 4.521310 5.420890 -24.204700 3.889650 1.212550 18.766500 3.308930 1.293300 -18.301399 -3.145140 0.333677 2.465820 3.702890 0.262332 2.000000 -2.000000 0.000000 -18.451300 10.873400 136.904999 30.146799 -0.333073 0.068721 0.074737 -0.078177 -166.082001 -2.000000 2.000000 0.000000 5.241720 -8.131820 118.505997 -30.293301 0.332897 0.068967 -0.056080 0.023163 -145.223007 -5.164938 0.211431 5.216025 28.719391 3.275737 2.030752 -18.924862 9.151368 3.969964 -8.384277 -3.296967 5.248033 33.969143 -3.145641 -2.356885 -25.979506 -24.918659 -12.305796 
-19.458553 41.989456 19.330082 0.715765 5.136320 5.806890 -24.132601 4.035410 1.044800 18.560200 3.737970 1.227490 -19.011299 -3.793120 0.943868 2.230920 3.419870 0.431782 2.000000 -2.000000 0.000000 -19.533899 11.174600 136.026001 29.248400 -0.334135 0.066859 0.075232 -0.079059 -166.442993 -2.000000 2.000000 0.000000 4.140530 -8.377210 119.589996 -31.748400 0.331108 0.071943 -0.056720 0.027187 -146.677994 -5.300493 -0.695922 5.012127 27.740072 3.225080 1.980721 -18.546822 9.235068 3.947844 -9.077573 -4.187520 5.283210 34.579685 -3.130551 -2.383845 -26.187693 -24.807646 -12.380513 
-19.323971 41.991772 19.048338 0.971755 5.790190 6.289940 -24.089199 4.120960 0.828415 18.265600 4.117810 1.124880 -19.486601 -4.158370 1.367970 2.103730 3.302770 0.564831 2.000000 -2.000000 0.000000 -20.673800 11.386800 134.434006 28.574499 -0.334912 0.065451 0.075300 -0.079178 -166.492004 -2.000000 2.000000 0.000000 3.311090 -8.436170 119.890999 -33.017899 0.329485 0.074501 -0.056795 0.027618 -146.834000 -5.562170 -1.483262 5.379936 26.949703 3.160679 1.945672 -17.990889 8.635249 3.646132 -9.789972 -5.076664 5.397315 35.190731 -3.117257 -2.431121 -26.493366 -24.699213 -12.474456 
-19.192425 42.004642 18.767155 1.247690 6.268060 6.738060 -24.082001 4.139040 0.681579 17.941999 4.263150 1.046270 -19.859301 -4.774280 1.826990 2.025440 3.029500 0.667464 2.000000 -2.000000 0.000000 -21.511499 11.609300 133.156006 28.291300 -0.335234 0.064857 0.075802 -0.080056 -166.852997 -2.000000 2.000000 0.000000 2.853420 -8.710330 120.496002 -34.228901 0.327885 0.076907 -0.057100 0.029314 -147.449005 -5.909452 -2.058426 5.839681 26.250084 3.079028 1.916923 -17.289307 7.974070 3.359999 -10.524878 -5.746002 5.651647 35.663967 -3.094843 -2.447397 -26.830261 -24.554688 -12.634782 
-19.067505 42.019833 18.499788 1.484620 6.657940 7.126400 -24.130100 4.078120 0.631365 17.589701 4.183860 0.994866 -20.282200 -5.446400 2.247910 1.888470 2.727000 0.739812 2.000000 -2.000000 0.000000 -21.853500 11.912000 133.175003 28.408501 -0.335101 0.065103 0.077271 -0.082555 -167.888000 -2.000000 2.000000 0.000000 2.650310 -9.219240 121.393997 -35.234699 0.326518 0.078879 -0.057601 0.031891 -148.386993 -6.357006 -2.569999 6.165365 25.870678 3.039415 1.903287 -16.907692 7.289576 3.086261 -11.115987 -6.284073 6.020888 36.046505 -3.099754 -2.464089 -27.154051 -24.377916 -12.651597 
-18.962019 42.040932 18.257252 1.691920 6.891550 7.469570 -24.196800 3.993440 0.600520 17.277300 3.968120 0.945237 -20.428200 -5.784620 2.490380 1.819990 2.590400 0.790615 2.000000 -2.000000 0.000000 -21.893299 12.137300 133.556000 28.555000 -0.334934 0.065410 0.078209 -0.093863 -168.533005 -2.000000 2.000000 0.000000 2.563290 -9.463880 121.793999 -35.723000 0.325842 0.079828 -0.057845 0.033069 -148.815994 -6.730162 -2.930772 6.460188 25.571564 2.988263 1.896088 -16.640497 6.765963 2.871488 -11.638335 -6.625110 6.406892 36.195835 -3.078200 -2.474780 -27.292679 -24.221554 -12.695611 
-18.873497 42.076450 18.044708 1.908480 6.929790 7.740790 -24.294300 3.959450 0.566467 17.043200 3.762470 0.922000 -20.210699 -5.874260 2.592870 1.888410 2.570860 0.833490 2.000000 -2.000000 0.000000 -21.815800 12.216000 133.927002 28.711300 -0.334756 0.065738 0.068745 -0.084586 -168.738007 -2.000000 2.000000 0.000000 2.436280 -9.385740 121.774002 -35.615601 0.325991 0.079620 -0.057890 0.033283 -148.893997 -7.180178 -3.137761 6.638006 25.373312 2.927670 1.925253 -16.298700 6.592483 2.783219 -12.003117 -6.814539 6.517997 36.185234 -3.089198 -2.478363 -27.471859 -23.946140 -12.681751 
